<?xml version="1.0" standalone="no"?>
<!DOCTYPE svg PUBLIC "-//W3C//DTD SVG 20010904//EN"
 "http://www.w3.org/TR/2001/REC-SVG-20010904/DTD/svg10.dtd">
<svg version="1.0" xmlns="http://www.w3.org/2000/svg"
 width="256.000000pt" height="248.000000pt" viewBox="0 0 256.000000 248.000000"
 preserveAspectRatio="xMidYMid meet">

<g transform="translate(0.000000,248.000000) scale(0.100000,-0.100000)"
fill="#000000" stroke="none">
<path d="M1552 2406 c-16 -36 -79 -103 -126 -135 -23 -15 -162 -90 -311 -166
-148 -76 -295 -155 -325 -176 -253 -173 -336 -482 -197 -742 37 -70 127 -156
200 -191 74 -35 171 -49 239 -35 29 5 124 44 210 86 176 85 224 96 275 64 81
-51 55 -183 -49 -258 -45 -32 -301 -162 -448 -228 -178 -80 -295 -182 -356
-310 -34 -71 -60 -175 -50 -201 4 -11 44 -14 214 -14 l209 0 26 38 c69 103
105 127 442 295 160 80 318 165 352 191 153 112 232 280 220 470 -15 246 -165
432 -379 468 -90 15 -153 -1 -319 -83 -77 -38 -157 -73 -177 -77 -170 -38
-194 181 -35 303 46 35 336 182 416 211 68 24 186 29 269 10 135 -30 268 -132
331 -253 17 -35 36 -63 40 -63 9 0 226 117 245 132 9 8 12 54 12 167 0 176
-11 254 -45 321 -31 61 -108 135 -175 168 l-55 27 -321 3 -320 3 -12 -25z"/>
</g>
</svg>
